<svg width="103" height="103" viewBox="0 0 103 103" fill="none" xmlns="http://www.w3.org/2000/svg">
<g clip-path="url(#clip0_516_1485)">
<rect width="103" height="103" rx="51.5" fill="white"/>
<path d="M52 107.8C35.5 107.8 20.914 99.48 12.4 87C12.598 74 38.8 66.85 52 66.85C65.2 66.85 91.402 74 91.6 87C87.2375 93.3995 81.3437 98.6439 74.4379 102.271C67.5322 105.898 59.8265 107.797 52 107.8ZM52 15.5C57.2513 15.5 62.2875 17.5545 66.0007 21.2114C69.7139 24.8684 71.8 29.8283 71.8 35C71.8 40.1717 69.7139 45.1316 66.0007 48.7886C62.2875 52.4455 57.2513 54.5 52 54.5C46.7487 54.5 41.7125 52.4455 37.9993 48.7886C34.2861 45.1316 32.2 40.1717 32.2 35C32.2 29.8283 34.2861 24.8684 37.9993 21.2114C41.7125 17.5545 46.7487 15.5 52 15.5ZM52 -4C43.3328 -4 34.7504 -2.31872 26.7429 0.947831C18.7354 4.21439 11.4596 9.00225 5.33095 15.0381C-7.04645 27.2279 -14 43.7609 -14 61C-14 78.2391 -7.04645 94.7721 5.33095 106.962C11.4596 112.998 18.7354 117.786 26.7429 121.052C34.7504 124.319 43.3328 126 52 126C69.5043 126 86.2916 119.152 98.669 106.962C111.046 94.7721 118 78.2391 118 61C118 25.055 88.3 -4 52 -4Z" fill="black"/>
</g>
<defs>
<clipPath id="clip0_516_1485">
<rect width="103" height="103" rx="51.5" fill="white"/>
</clipPath>
</defs>
</svg>
